<svg width="24" height="24" viewBox="0 0 24 24" fill="none" xmlns="http://www.w3.org/2000/svg">
<g clip-path="url(#clip0_7_300)">
<path d="M20 0C21.0609 0 22.0783 0.421427 22.8284 1.17157C23.5786 1.92172 24 2.93913 24 4V20C24 21.0609 23.5786 22.0783 22.8284 22.8284C22.0783 23.5786 21.0609 24 20 24H4C2.93913 24 1.92172 23.5786 1.17157 22.8284C0.421427 22.0783 0 21.0609 0 20V4C0 2.93913 0.421427 1.92172 1.17157 1.17157C1.92172 0.421427 2.93913 0 4 0L20 0ZM8.95 9.4H6.16V17.5H8.96V9.4H8.95ZM15.79 9.21C14.47 9.21 13.79 9.84 13.41 10.37L13.28 10.55V9.4H10.49L10.5 9.89V17.5H13.28V12.98C13.2634 12.7705 13.2904 12.5599 13.3594 12.3614C13.4283 12.1629 13.5376 11.9809 13.6804 11.8268C13.8233 11.6726 13.9965 11.5498 14.1892 11.466C14.3819 11.3823 14.5899 11.3393 14.8 11.34C15.76 11.34 16.17 12 16.21 13V17.5H19V12.86C19 10.37 17.63 9.21 15.8 9.21H15.79ZM7.58 5.5C6.62 5.5 6 6.1 6 6.9C6 7.63 6.54 8.22 7.38 8.3H7.56C8.53 8.3 9.13 7.68 9.13 6.9C9.12 6.1 8.53 5.5 7.58 5.5Z" fill="white"/>
</g>
<defs>
<clipPath id="clip0_7_300">
<rect width="24" height="24" fill="white"/>
</clipPath>
</defs>
</svg>
