<svg width="443" height="54" viewBox="0 0 443 54" fill="none" xmlns="http://www.w3.org/2000/svg">
<path d="M430.179 29.7096C430.179 33.8852 432.313 35.8004 434.825 35.8004C437.557 35.8004 439.378 33.5085 439.378 29.7096C439.378 25.9107 437.557 23.6502 434.825 23.6502C432.313 23.6502 430.179 25.5339 430.179 29.7096ZM427.039 15.3616H430.304V23.713C431.34 21.9548 433.067 20.9187 435.579 20.9187C439.503 20.9187 442.862 24.1839 442.862 29.7096C442.862 35.2353 439.503 38.5318 435.579 38.5318C433.067 38.5318 431.34 37.4958 430.304 35.7376V38.1237H427.039V15.3616Z" fill="white"/>
<path d="M419.373 38.1237V35.7376C418.4 37.4644 416.767 38.5318 414.224 38.5318C410.237 38.5318 408.698 36.083 408.698 31.9701V21.2327H411.963V31.091C411.963 33.5085 412.372 35.769 415.323 35.769C418.086 35.769 419.404 33.7597 419.404 30.4003V21.2327H422.669V38.1237H419.373Z" fill="white"/>
<path d="M400.662 15.3616H404.242V38.1237H400.662V27.92H389.234V38.1237H385.655V15.3616H389.234V24.906H400.662V15.3616Z" fill="white"/>
<path d="M362.944 21.2327V23.6815C363.917 22.0176 365.613 20.9187 368.25 20.9187C372.331 20.9187 373.901 23.556 373.901 27.4805V38.1237H370.636V28.3595C370.636 25.9421 370.259 23.6501 367.151 23.6501C364.294 23.6501 362.944 25.6595 362.944 29.0503V38.1237H359.679V21.2327H362.944Z" fill="white"/>
<path d="M343.453 29.741C343.453 33.8852 345.745 35.769 348.193 35.769C350.705 35.769 352.966 33.8538 352.966 29.741C352.966 25.5653 350.705 23.6815 348.193 23.6815C345.745 23.6815 343.453 25.4711 343.453 29.741ZM348.193 20.9187C352.212 20.9187 356.419 23.6188 356.419 29.741C356.419 35.8318 352.212 38.5318 348.193 38.5318C344.206 38.5318 339.999 35.8318 339.999 29.741C339.999 23.6188 344.206 20.9187 348.193 20.9187Z" fill="white"/>
<path d="M333.464 21.2327H336.729V38.1237H333.464V21.2327ZM333.464 15.3616H336.729V18.9722H333.464V15.3616Z" fill="white"/>
<path d="M323.393 21.2327V16.9H326.658V21.2327H329.986V23.7129H326.658V33.3515C326.658 35.0783 326.94 35.5178 328.573 35.5178H329.954V38.1237H327.568C324.146 38.1237 323.393 37.276 323.393 33.791V23.7129H320.818V21.2327H323.393Z" fill="white"/>
<path d="M315.561 31.3108V30.0863C310.318 30.5887 307.555 31.3422 307.555 33.5085C307.555 35.0469 308.748 36.0202 310.757 36.0202C313.426 36.0202 315.561 34.6701 315.561 31.3108ZM310.035 38.5318C306.613 38.5318 304.007 36.6481 304.007 33.5713C304.007 29.4584 308.873 28.3282 315.404 27.6688V27.3235C315.404 24.3409 313.834 23.3362 311.762 23.3362C309.501 23.3362 308.214 24.4665 308.089 26.57H304.792C305.043 22.9594 308.026 20.8245 311.887 20.8245C316.252 20.8245 318.732 22.9281 318.7 27.9828C318.7 28.3909 318.638 31.3108 318.638 32.0329C318.638 34.5759 318.795 36.6167 319.109 38.1237H315.969C315.843 37.4644 315.781 36.9934 315.686 35.8946C314.682 37.6214 312.798 38.5318 310.035 38.5318Z" fill="white"/>
<path d="M279.916 29.0503V38.1237H276.651V21.2327H279.916V23.6815C280.89 22.0176 282.491 20.9187 284.908 20.9187C287.546 20.9187 289.053 22.0176 289.806 23.9013C291.219 21.7664 293.165 20.9187 295.394 20.9187C299.35 20.9187 300.889 23.556 300.889 27.4805V38.1237H297.624V28.3595C297.624 25.9421 297.215 23.6501 294.296 23.6501C291.69 23.6501 290.403 25.6595 290.403 29.0503V38.1237H287.137V28.3595C287.137 25.9421 286.729 23.6501 283.809 23.6501C281.172 23.6501 279.916 25.6595 279.916 29.0503Z" fill="white"/>
<path d="M274.067 21.2013V24.592C273.471 24.5292 272.905 24.4978 272.372 24.4978C269.86 24.4978 268.541 25.7223 268.541 29.27V38.1237H265.276V21.2327H268.479V24.2153C269.358 22.3001 271.022 21.2013 273.157 21.1699C273.439 21.1699 273.784 21.1699 274.067 21.2013Z" fill="white"/>
<path d="M249.05 29.741C249.05 33.8852 251.342 35.769 253.791 35.769C256.303 35.769 258.563 33.8538 258.563 29.741C258.563 25.5653 256.303 23.6815 253.791 23.6815C251.342 23.6815 249.05 25.4711 249.05 29.741ZM253.791 20.9187C257.81 20.9187 262.017 23.6188 262.017 29.741C262.017 35.8318 257.81 38.5318 253.791 38.5318C249.804 38.5318 245.597 35.8318 245.597 29.741C245.597 23.6188 249.804 20.9187 253.791 20.9187Z" fill="white"/>
<path d="M237.635 21.2327V20.1024C237.635 16.3663 238.765 15.3616 242.69 15.3616H244.165V17.9675H242.909C241.245 17.9675 240.9 18.3129 240.9 20.071V21.2327H244.165V23.713H240.9V38.1237H237.635V23.713H235.28V21.2327H237.635Z" fill="white"/>
<path d="M221.999 21.2327V23.6815C222.973 22.0176 224.668 20.9187 227.305 20.9187C231.387 20.9187 232.957 23.556 232.957 27.4805V38.1237H229.691V28.3595C229.691 25.9421 229.315 23.6501 226.206 23.6501C223.349 23.6501 221.999 25.6595 221.999 29.0503V38.1237H218.734V21.2327H221.999Z" fill="white"/>
<path d="M214.012 15.3616V38.1237H210.433V15.3616H214.012Z" fill="white"/>
<path d="M198.36 15.3616V38.1237H195.095V15.3616H198.36Z" fill="white"/>
<path d="M187.923 31.3108V30.0863C182.68 30.5887 179.917 31.3422 179.917 33.5085C179.917 35.0469 181.11 36.0202 183.119 36.0202C185.788 36.0202 187.923 34.6701 187.923 31.3108ZM182.397 38.5318C178.975 38.5318 176.369 36.6481 176.369 33.5713C176.369 29.4584 181.235 28.3282 187.766 27.6688V27.3235C187.766 24.3409 186.196 23.3362 184.124 23.3362C181.863 23.3362 180.576 24.4665 180.45 26.57H177.154C177.405 22.9594 180.388 20.8245 184.249 20.8245C188.613 20.8245 191.094 22.9281 191.062 27.9828C191.062 28.3909 191 31.3108 191 32.0329C191 34.5759 191.157 36.6167 191.47 38.1237H188.331C188.205 37.4644 188.142 36.9934 188.048 35.8946C187.044 37.6214 185.16 38.5318 182.397 38.5318Z" fill="white"/>
<path d="M162.335 21.2327V23.6815C163.308 22.0176 165.003 20.9187 167.641 20.9187C171.722 20.9187 173.292 23.556 173.292 27.4805V38.1237H170.027V28.3595C170.027 25.9421 169.65 23.6501 166.542 23.6501C163.685 23.6501 162.335 25.6595 162.335 29.0503V38.1237H159.07V21.2327H162.335Z" fill="white"/>
<path d="M142.844 29.741C142.844 33.8852 145.136 35.769 147.584 35.769C150.096 35.769 152.357 33.8538 152.357 29.741C152.357 25.5653 150.096 23.6815 147.584 23.6815C145.136 23.6815 142.844 25.4711 142.844 29.741ZM147.584 20.9187C151.603 20.9187 155.81 23.6188 155.81 29.741C155.81 35.8318 151.603 38.5318 147.584 38.5318C143.597 38.5318 139.39 35.8318 139.39 29.741C139.39 23.6188 143.597 20.9187 147.584 20.9187Z" fill="white"/>
<path d="M132.855 21.2327H136.12V38.1237H132.855V21.2327ZM132.855 15.3616H136.12V18.9722H132.855V15.3616Z" fill="white"/>
<path d="M122.783 21.2327V16.9H126.049V21.2327H129.377V23.7129H126.049V33.3515C126.049 35.0783 126.331 35.5178 127.964 35.5178H129.345V38.1237H126.959C123.537 38.1237 122.783 37.276 122.783 33.791V23.7129H120.209V21.2327H122.783Z" fill="white"/>
<path d="M114.952 31.3108V30.0863C109.709 30.5887 106.946 31.3422 106.946 33.5085C106.946 35.0469 108.139 36.0202 110.148 36.0202C112.817 36.0202 114.952 34.6701 114.952 31.3108ZM109.426 38.5318C106.004 38.5318 103.398 36.6481 103.398 33.5713C103.398 29.4584 108.264 28.3282 114.795 27.6688V27.3235C114.795 24.3409 113.225 23.3362 111.153 23.3362C108.892 23.3362 107.605 24.4665 107.479 26.57H104.183C104.434 22.9594 107.417 20.8245 111.278 20.8245C115.642 20.8245 118.123 22.9281 118.091 27.9828C118.091 28.3909 118.029 31.3108 118.029 32.0329C118.029 34.5759 118.186 36.6167 118.499 38.1237H115.36C115.234 37.4644 115.171 36.9934 115.077 35.8946C114.073 37.6214 112.189 38.5318 109.426 38.5318Z" fill="white"/>
<path d="M99.694 38.1237H94.7021L84.6554 19.2861V38.1237H81.139V15.3616H86.131L96.1777 34.1678V15.3616H99.694V38.1237Z" fill="white"/>
<path fill-rule="evenodd" clip-rule="evenodd" d="M10.3186 4.48511H17.8984C21.0605 4.48511 23.5946 7.06406 23.5946 10.2283V17.8732C23.5946 21.0577 21.0605 23.6142 17.8984 23.6142H10.3186C7.17896 23.6142 4.62244 21.0577 4.62244 17.8732V10.2283C4.62244 7.06406 7.17896 4.48511 10.3186 4.48511ZM10.3186 30.2067H17.8984C21.0605 30.2067 23.5946 32.7655 23.5946 35.9499V43.5948C23.5946 46.7568 21.0605 49.3358 17.8984 49.3358H10.3186C7.17896 49.3358 4.62244 46.7568 4.62244 43.5948V35.9499C4.62244 32.7655 7.17896 30.2067 10.3186 30.2067ZM43.7779 4.48511H36.198C33.036 4.48511 30.5019 7.06406 30.5019 10.2283V17.8732C30.5019 21.0577 33.036 23.6142 36.198 23.6142H43.7779C46.9175 23.6142 49.474 21.0577 49.474 17.8732V10.2283C49.474 7.06406 46.9175 4.48511 43.7779 4.48511ZM36.198 30.2067H43.7779C46.9175 30.2067 49.474 32.7655 49.474 35.9499V43.5948C49.474 46.7568 46.9175 49.3358 43.7779 49.3358H36.198C33.036 49.3358 30.5019 46.7568 30.5019 43.5948V35.9499C30.5019 32.7655 33.036 30.2067 36.198 30.2067Z" fill="white"/>
</svg>
