<svg width="24" height="24" viewBox="0 0 24 24" fill="none" xmlns="http://www.w3.org/2000/svg">
<g clip-path="url(#clip0_7_298)">
<path d="M20 0C21.0609 0 22.0783 0.421427 22.8284 1.17157C23.5786 1.92172 24 2.93913 24 4V20C24 21.0609 23.5786 22.0783 22.8284 22.8284C22.0783 23.5786 21.0609 24 20 24H4C2.93913 24 1.92172 23.5786 1.17157 22.8284C0.421427 22.0783 0 21.0609 0 20V4C0 2.93913 0.421427 1.92172 1.17157 1.17157C1.92172 0.421427 2.93913 0 4 0L20 0ZM15.58 5.8C15.0849 5.79896 14.596 5.91 14.15 6.12481C13.7039 6.33962 13.3123 6.65262 13.0044 7.04033C12.6965 7.42805 12.4804 7.88043 12.3723 8.36356C12.2642 8.84669 12.2668 9.34803 12.38 9.83C11.0741 9.76515 9.79643 9.42625 8.63006 8.83531C7.46369 8.24437 6.43471 7.41463 5.61 6.4C5.18505 7.12138 5.05393 7.97861 5.24383 8.79404C5.43372 9.60947 5.93006 10.3206 6.63 10.78C6.10854 10.7674 5.59765 10.6303 5.14 10.38V10.41C5.1393 11.1693 5.40208 11.9054 5.88353 12.4926C6.36497 13.0799 7.03525 13.4818 7.78 13.63C7.29442 13.7634 6.78474 13.7839 6.29 13.69C6.50036 14.3425 6.90931 14.9131 7.45973 15.3218C8.01014 15.7306 8.67451 15.9572 9.36 15.97C8.679 16.5049 7.89926 16.9003 7.06535 17.1337C6.23144 17.367 5.35971 17.4337 4.5 17.33C6.00086 18.2925 7.74701 18.8028 9.53 18.8C15.57 18.8 18.87 13.8 18.87 9.46V9.04C19.5102 8.57483 20.0621 7.99913 20.5 7.34C19.91 7.6 19.28 7.78 18.61 7.86C19.29 7.45 19.81 6.81 20.06 6.04C19.42 6.42 18.72 6.69 17.97 6.84C17.6627 6.51129 17.291 6.24933 16.8782 6.07042C16.4653 5.8915 16.02 5.79945 15.57 5.8H15.58Z" fill="white"/>
</g>
<defs>
<clipPath id="clip0_7_298">
<rect width="24" height="24" fill="white"/>
</clipPath>
</defs>
</svg>
