<svg width="24" height="24" viewBox="0 0 24 24" fill="none" xmlns="http://www.w3.org/2000/svg">
<g clip-path="url(#clip0_7_296)">
<path d="M20 0C21.0609 0 22.0783 0.421427 22.8284 1.17157C23.5786 1.92172 24 2.93913 24 4V20C24 21.0609 23.5786 22.0783 22.8284 22.8284C22.0783 23.5786 21.0609 24 20 24H4C2.93913 24 1.92172 23.5786 1.17157 22.8284C0.421427 22.0783 0 21.0609 0 20V4C0 2.93913 0.421427 1.92172 1.17157 1.17157C1.92172 0.421427 2.93913 0 4 0L20 0ZM12.3 7H11.7L10.6 7.01C9.12 7.04 6.9 7.11 6.14 7.3C5.49 7.46 4.99 7.95 4.81 8.56C4.63 9.2 4.56 10.26 4.52 11.02L4.5 11.84V12.59C4.53 13.35 4.6 14.68 4.81 15.44C4.99 16.05 5.49 16.54 6.14 16.7C6.88 16.89 9.01 16.96 10.48 16.99L11.89 17H13.05C14.5 16.97 17.05 16.91 17.86 16.7C18.1724 16.6244 18.4596 16.4684 18.693 16.2473C18.9263 16.0262 19.0977 15.7479 19.19 15.44C19.39 14.69 19.47 13.39 19.49 12.62V11.69C19.49 11.02 19.43 9.43 19.19 8.56C19.0977 8.25211 18.9263 7.97377 18.693 7.7527C18.4596 7.53163 18.1724 7.37555 17.86 7.3C16.5755 7.10953 15.2785 7.01594 13.98 7.02L12.3 7ZM10.46 9.9L14.39 12L10.47 14.11V9.89L10.46 9.9Z" fill="white"/>
</g>
<defs>
<clipPath id="clip0_7_296">
<rect width="24" height="24" fill="white"/>
</clipPath>
</defs>
</svg>
